<?xml version="1.0" encoding="UTF-8"?>
<!DOCTYPE svg PUBLIC "-//W3C//DTD SVG 1.1//EN" "http://www.w3.org/Graphics/SVG/1.1/DTD/svg11.dtd">
<!-- Creator: CorelDRAW X7 -->
<svg xmlns="http://www.w3.org/2000/svg" xml:space="preserve" width="50.2mm" height="50.2mm" version="1.1" style="shape-rendering:geometricPrecision; text-rendering:geometricPrecision; image-rendering:optimizeQuality; fill-rule:evenodd; clip-rule:evenodd"
viewBox="0 0 1335 1335"
 xmlns:xlink="http://www.w3.org/1999/xlink">
 <defs>
  <style type="text/css">
   <![CDATA[
    .str0 {stroke:#373435;stroke-width:5.31766}
    .fil0 {fill:black}
   ]]>
  </style>
 </defs>
 <g id="Layer_x0020_1">
  <metadata id="CorelCorpID_0Corel-Layer"/>
  <path class="fil0 str0" d="M667 3c367,0 665,297 665,664 0,367 -298,665 -665,665 -367,0 -664,-298 -664,-665 0,-367 297,-664 664,-664zm33 755c-6,26 -12,49 -17,71 -4,22 -10,43 -15,63 -5,21 -11,41 -16,61 -6,21 -13,42 -21,64 -7,19 -16,33 -25,39 -10,7 -21,3 -34,-12 -14,-17 -20,-34 -19,-50 0,-17 4,-36 12,-59 5,-17 12,-39 20,-67 9,-27 20,-67 35,-119 -18,-1 -33,-2 -43,-2 -10,-1 -18,-1 -23,-2 -5,0 -9,0 -10,0 -1,0 -3,-1 -3,-2 -2,-1 -2,-4 -1,-9 1,-4 4,-9 7,-13 4,-4 8,-7 14,-10 5,-3 11,-5 17,-5 7,0 15,0 24,0 10,0 19,1 29,2 4,-18 9,-38 13,-60 5,-22 8,-45 11,-69 4,-24 6,-48 8,-71 2,-23 2,-44 2,-62 0,-24 -4,-47 -12,-69 -7,-21 -18,-39 -31,-54 -14,-15 -29,-25 -47,-30 -18,-5 -36,-4 -56,3 -21,8 -41,23 -59,46 -18,23 -33,50 -45,81 -12,30 -20,63 -26,97 -5,34 -6,66 -3,95 3,30 11,55 24,77 14,21 33,34 58,39 20,5 29,9 26,12 -3,4 -12,5 -28,4 -40,-1 -71,-13 -93,-34 -22,-21 -37,-48 -45,-79 -8,-31 -9,-65 -3,-102 6,-37 17,-72 33,-106 16,-34 37,-63 63,-89 26,-26 55,-43 88,-53 27,-8 54,-11 79,-7 25,3 48,11 67,25 20,14 37,32 50,55 14,23 22,50 27,81 6,48 6,94 -1,139 -8,44 -15,89 -22,133 3,0 9,0 19,1 10,0 21,1 35,1 14,1 29,1 45,2 17,0 33,0 49,0 5,-27 11,-56 18,-85 7,-30 15,-62 24,-95 6,-23 12,-39 21,-48 8,-10 16,-15 24,-14 7,0 13,5 18,14 4,9 5,21 2,37 -5,32 -10,64 -15,96 -5,31 -10,64 -14,96 10,0 18,1 26,1 7,1 15,0 22,-1 6,0 12,-1 19,-2 7,-1 11,1 11,5 1,6 -2,11 -8,15 -7,4 -15,8 -24,10 -9,2 -19,3 -29,4 -9,1 -16,2 -21,2 -8,54 -16,106 -24,155 -8,50 -15,95 -22,137 -2,8 -5,13 -10,16 -5,2 -11,3 -17,2 -6,-2 -13,-5 -19,-9 -7,-5 -13,-11 -18,-18 -9,-11 -14,-25 -15,-42 -1,-16 1,-34 4,-53l39 -183c-18,1 -40,2 -65,3 -26,1 -54,1 -84,1z"/>
 </g>
</svg>
