<?xml version="1.0" standalone="no"?>
<!DOCTYPE svg PUBLIC "-//W3C//DTD SVG 20010904//EN"
 "http://www.w3.org/TR/2001/REC-SVG-20010904/DTD/svg10.dtd">
<svg version="1.0" xmlns="http://www.w3.org/2000/svg"
 width="406.000000pt" height="406.000000pt" viewBox="0 0 406.000000 406.000000"
 preserveAspectRatio="xMidYMid meet">
<metadata>
Created by potrace 1.11, written by Peter Selinger 2001-2013
</metadata>
<g transform="translate(0.000000,406.000000) scale(0.100000,-0.100000)"
fill="#000000" stroke="none">
<path d="M1796 4039 c-396 -52 -732 -196 -1041 -445 -134 -108 -310 -297 -381
-409 -10 -16 -21 -32 -25 -35 -15 -13 -120 -204 -153 -280 -61 -138 -63 -142
-84 -210 -68 -214 -93 -366 -97 -585 -6 -264 25 -466 106 -704 180 -527 607
-986 1119 -1203 259 -109 509 -160 790 -160 543 0 1036 202 1422 582 407 401
617 921 603 1490 -14 528 -222 1011 -597 1382 -325 322 -735 521 -1188 576
-96 12 -385 13 -474 1z m508 -105 c497 -70 960 -341 1263 -740 209 -275 344
-618 382 -969 9 -88 7 -361 -4 -440 -37 -264 -125 -518 -256 -740 -120 -205
-347 -449 -545 -589 -378 -267 -870 -393 -1323 -339 -319 38 -634 154 -871
321 -465 327 -744 780 -824 1338 -14 99 -15 427 -2 504 84 470 237 786 526
1084 80 83 126 124 260 229 50 40 181 117 285 167 185 90 370 146 575 175 123
17 407 17 534 -1z"/>
<path d="M1740 3446 c-65 -15 -133 -44 -187 -80 -31 -22 -752 -733 -828 -818
-32 -36 -81 -131 -101 -198 -43 -139 -7 -340 81 -460 30 -41 1123 -1137 1177
-1181 49 -40 152 -86 217 -99 173 -33 348 15 472 128 131 119 782 781 809 822
73 110 101 294 65 430 -37 144 -35 141 -639 749 -309 310 -587 583 -620 607
-132 99 -291 134 -446 100z m264 -111 c27 -9 68 -29 92 -44 l43 -27 -318 -319
-319 -320 -53 38 c-77 54 -190 87 -301 88 l-90 0 263 262 c274 271 311 301
420 332 68 19 196 14 263 -10z m747 -682 c404 -406 542 -551 563 -591 49 -94
64 -236 35 -332 -36 -115 -119 -219 -217 -273 -140 -76 -336 -66 -467 23 -22
15 -277 264 -566 553 l-525 526 315 315 c174 174 318 316 321 316 3 0 246
-242 541 -537z m-1433 -31 c28 -11 73 -36 99 -55 26 -20 280 -268 563 -551
l515 -516 -319 -319 -319 -319 -536 537 c-574 575 -579 581 -606 708 -75 356
263 644 603 515z m1308 -1234 c74 -49 187 -81 293 -81 l93 0 -263 -262 c-244
-242 -270 -265 -344 -301 -78 -39 -80 -39 -195 -38 -120 0 -158 10 -248 66
l-34 21 318 318 c175 175 323 315 328 311 6 -3 29 -18 52 -34z"/>
</g>
</svg>
