<svg xmlns="http://www.w3.org/2000/svg" xml:space="preserve" id="svg5" width="22.9453" height="18.3696" version="1.1" viewBox="0 0 6.071 4.8603"><defs id="defs2"><style id="style1157" type="text/css">.fil0,.fil1{fill:#000}.fil1{fill-rule:nonzero}</style></defs><g id="layer1" transform="translate(-198.6374 -116.5718)"><path id="path3724" d="M198.8817 121.4125c-.046-.027-.0477-.1298-.003-.1747.0185-.0184.0917-.0599.1627-.092.071-.0323.1635-.093.2056-.135l.0764-.0765-.0003-1.7927c-.0002-1.8878-.002-1.9203-.0937-2.0607-.0466-.071-.1523-.1256-.305-.157-.1314-.0272-.2101-.0789-.2564-.1684-.0324-.0627-.0416-.1642-.0152-.1676.1095-.0139 1.2266-.011 1.2437.003.0127.0105.2085.4006.4352.8667.2267.4662.4193.8558.4281.8659.009.01.1927-.3362.4085-.7694.2159-.4332.4095-.8133.4302-.8448.0524-.0795.1595-.0795.234 0 .0462.0492.4606.868.7183 1.4192l.0826.1767.434-.8667.434-.8667.5985.004.5985.004.006.0553c.008.0705-.0443.1726-.1115.2166-.0287.0188-.1218.0504-.2069.0701-.085.0198-.1782.0514-.207.0703-.0743.0487-.1327.1754-.1564.3395-.0278.1924-.0276 3.0934.0003 3.2707.053.3374.1775.4772.5087.5714.1567.0446.1767.0614.1767.149 0 .0568-.0105.0747-.0533.091-.0653.0248-.317.0245-.6224-.001-.1463-.012-.4048-.0107-.7174.004-.5659.0262-.603.0203-.603-.0958 0-.0832.026-.1015.2495-.175.2003-.066.26-.1094.3023-.2201l.0367-.0962-.2945-.6074a78.7964 78.7964 0 0 1-.3297-.6854c-.0194-.0429-.0404-.0778-.0466-.0776-.006.0002-.1888.3613-.4057.8025-.3884.79-.4563.9022-.5461.9022-.0854 0-.1878-.1693-.5448-.9009-.1993-.4084-.3693-.7354-.3777-.7266-.0396.0415-.746 1.4867-.7353 1.5042.022.0356.1648.0985.3019.1331.1438.0363.2067.088.2067.1697 0 .0882-.0688.0976-.5359.073-.2318-.0122-.433-.0186-.447-.0143-.0685.0211-.6318.0294-.665.01zm1.2874-1.8476.3152-.64-.2082-.4241a75.9911 75.9911 0 0 1-.3195-.6581c-.0612-.1287-.1163-.234-.1226-.234-.006 0-.0114.5849-.0114 1.2996 0 .7148.007 1.299.0156 1.2981.009-.001.1575-.2895.3309-.6415zm2.1329-.7838c-.0242-.0558-.1645-.3478-.3117-.649l-.2677-.5474-.3352.676-.3352.676.1677.3393c.0922.1866.2328.475.3123.6408l.1447.3015.3346-.6679.3345-.6679zm1.1996.1013-.002-1.18-.2922.5877-.2922.5877.186.3791c.1023.2086.2321.475.2884.5922.0563.1172.1047.2131.1076.2132.003 0 .005-.531.004-1.18z" style="fill:#fff;stroke-width:.999999"/></g></svg>