<?xml version="1.0" encoding="UTF-8"?>
<!DOCTYPE svg PUBLIC "-//W3C//DTD SVG 1.1//EN" "http://www.w3.org/Graphics/SVG/1.1/DTD/svg11.dtd">
<!-- Creator: CorelDRAW 2018 (64 Bit) -->
<svg xmlns="http://www.w3.org/2000/svg" xml:space="preserve" width="23.2706mm" height="23.2707mm" version="1.1" style="shape-rendering:geometricPrecision; text-rendering:geometricPrecision; image-rendering:optimizeQuality; fill-rule:evenodd; clip-rule:evenodd"
viewBox="0 0 400.76 400.76"
 xmlns:xlink="http://www.w3.org/1999/xlink">
 <defs>
  <style type="text/css">
   <![CDATA[
    .fil0 {fill:black}
   ]]>
  </style>
 </defs>
 <g id="Camada_x0020_1">
  <metadata id="CorelCorpID_0Corel-Layer"/>
  <g id="_1460550015184">
   <path class="fil0" d="M342.07 342.07c78.25,-78.25 78.25,-205.13 0,-283.38 -78.25,-78.25 -205.13,-78.25 -283.38,0 -78.25,78.25 -78.25,205.13 0,283.38 78.25,78.25 205.13,78.25 283.38,0zm-6.3 -6.3c74.77,-74.77 74.77,-196.01 0,-270.79 -74.77,-74.78 -196.01,-74.78 -270.79,0 -74.77,74.77 -74.77,196.01 0,270.79 74.77,74.78 196.01,74.78 270.79,0z"/>
   <path class="fil0" d="M221.04 74.62l105.1 105.1c21.01,21.01 21.01,55.36 0,76.36l-70.06 70.06c-21.01,21.01 -55.36,21.01 -76.36,0l-105.1 -105.1c-21.01,-21.01 -21.01,-55.36 0,-76.36l70.06 -70.06c21.01,-21.01 55.36,-21.01 76.36,0zm98.8 175.17l-70.06 70.06c-17.53,17.53 -46.24,17.53 -63.77,0l-105.1 -105.1c-17.53,-17.53 -17.53,-46.24 0,-63.77l70.06 -70.06c17.53,-17.53 46.24,-17.53 63.77,0l105.1 105.1c17.53,17.53 17.53,46.24 -0,63.77z"/>
   <path class="fil0" d="M256.22 249.92c-0.04,-0.05 -0.09,-0.09 -0.13,-0.14l-105.1 -105.1c-21.01,-21.01 -55.35,-21.01 -76.36,0 -21.01,21.01 -21.01,55.35 -0,76.36l105.1 105.1c1.73,1.73 4.56,1.73 6.3,0 1.74,-1.73 1.74,-4.56 0,-6.3l-105.1 -105.1c-17.53,-17.53 -17.53,-46.24 0,-63.77 17.49,-17.48 46.09,-17.53 63.63,-0.13 0.04,0.05 0.09,0.09 0.13,0.14l105.1 105.1c21.01,21.01 55.36,21 76.36,-0 21.01,-21.01 21.01,-55.35 0,-76.36l-105.1 -105.1c-1.73,-1.73 -4.56,-1.73 -6.3,0 -1.73,1.73 -1.73,4.56 0,6.3l105.1 105.1c17.53,17.53 17.53,46.24 0,63.77 -17.49,17.49 -46.09,17.54 -63.63,0.14z"/>
   <path class="fil0" d="M251.29 248.28l-73.08 73.08c-0.9,0.9 -0.23,3.06 1.51,4.79 1.73,1.73 3.89,2.41 4.79,1.51l73.08 -73.08c0.9,-0.9 0.23,-3.06 -1.51,-4.79 -1.73,-1.73 -3.89,-2.41 -4.79,-1.51z"/>
   <path class="fil0" d="M216.25 73.12l-73.07 73.07c-0.9,0.91 -0.23,3.06 1.51,4.79 1.73,1.73 3.89,2.41 4.79,1.51l73.07 -73.07c0.9,-0.9 0.23,-3.06 -1.51,-4.79 -1.73,-1.74 -3.89,-2.41 -4.79,-1.51z"/>
  </g>
 </g>
</svg>
