<?xml version="1.0" encoding="UTF-8"?>
<!DOCTYPE svg PUBLIC "-//W3C//DTD SVG 1.1//EN" "http://www.w3.org/Graphics/SVG/1.1/DTD/svg11.dtd">
<!-- Creator: CorelDRAW 2018 (64 Bit) -->
<svg xmlns="http://www.w3.org/2000/svg" xml:space="preserve" width="121.408mm" height="23.2832mm" version="1.1" style="shape-rendering:geometricPrecision; text-rendering:geometricPrecision; image-rendering:optimizeQuality; fill-rule:evenodd; clip-rule:evenodd"
viewBox="0 0 6021.04 1154.7"
 xmlns:xlink="http://www.w3.org/1999/xlink">
 <defs>
  <style type="text/css">
   <![CDATA[
    .fil1 {fill:white}
    .fil0 {fill:white;fill-rule:nonzero}
   ]]>
  </style>
 </defs>
 <g id="Camada_x0020_1">
  <metadata id="CorelCorpID_0Corel-Layer"/>
  <g id="_1460550057552">
   <path class="fil0" d="M5079.37 969.72c-43.23,0 -80.79,-11.49 -113.08,-34.63 -32.28,-23.16 -57.09,-57.11 -74.77,-102.04 -17.7,-44.93 -26.45,-97.41 -26.45,-157.43 0,-311.17 256.46,-317.18 374.98,-267.5l0 -78.22 0 -152.46 210.66 0 0 781.99 -210.66 0 0 -71.68 0 0c-35.93,54.71 -89.55,81.96 -160.68,81.96zm67.66 -142.76c33.55,0 57.09,-9.95 70.76,-29.67 13.68,-19.72 22.25,-50.23 22.25,-91.4l0 -15.61c0,-50.24 0,-85.22 0,-109.03 -49.65,-49.64 -130.71,-30.55 -158.86,14.62 -15.15,24.3 -22.79,50.69 -22.79,95.44 0,44.25 7.68,77.88 22.97,101.01 15.3,23.14 37.21,34.64 65.66,34.64z"/>
   <path class="fil0" d="M4845.02 958.78l-209.01 0 0 -56.28c19.99,-32.32 29.03,-70.31 29.03,-111.76 0,-30.91 -4.56,-62.45 -17.44,-90.76 -3.39,-7.44 -7.26,-14.53 -11.59,-21.25l0 -277.01 0 -17.47 209.01 0 0 574.54z"/>
   <polygon class="fil0" points="4130.77,958.78 3921.77,958.78 3921.77,384.24 4130.77,384.24 "/>
   <polygon class="fil0" points="3469.19,958.78 3238.29,384.24 3456.24,384.24 3568.59,748.93 3689.51,384.24 3906.91,384.24 3676.02,958.78 "/>
   <polygon class="fil0" points="4845.02,177.44 4636.01,177.44 4636.01,339.39 4845.02,339.39 "/>
   <path class="fil0" d="M3068.43 958.78l0 -73.62 -4.38 0c-14.68,25.43 -46.39,92.11 -176.36,92.11 -56.9,0 -101.87,-15.92 -134.6,-47.89 -32.74,-31.95 -49.06,-84.1 -49.06,-142.05 0,-60.17 22.44,-105.16 67.3,-134.65 44.87,-29.48 109.8,-46.01 194.97,-49.59l101.04 -3.06 0 -8.01c0,-46.53 -24.62,-61.42 -73.69,-61.42 -44.31,0 -100.3,13.98 -168.34,41.93l-60.37 -137.32c70.4,-33.92 159.58,-50.97 267.01,-50.97 77.69,0 137.87,17.9 180.37,53.86 42.68,35.97 63.84,86.24 63.84,150.84l0 371.05 -207.73 -1.21zm-91.92 -126.62c25.16,0 46.87,-7.5 64.93,-22.5 17.87,-15 26.99,-34.43 26.99,-58.29l0 -43.98 -48.15 2.05c-68.77,2.22 -103.06,25.9 -103.06,70.73 0,34.6 19.7,51.98 59.28,51.98z"/>
   <path class="fil0" d="M5769.53 977.27c-95.38,0 -169.38,-25.35 -222.16,-76.06 -52.61,-50.72 -79.01,-123 -79.01,-216.66 0,-96.77 24.33,-170.94 73.31,-222.68 48.82,-51.76 118.51,-77.63 209.07,-77.63 86.25,0 152.83,22.43 199.92,67.45 46.92,45.02 70.38,109.88 70.38,194.4l0 87.97 -353.09 0c1.37,31.91 13.11,57.09 35.18,75.21 21.91,18.11 52.1,27.25 90.05,27.25 34.67,0 105.7,-7.75 167.51,-54.38l60.37 129.01c-97.51,56.3 -173.52,66.12 -251.51,66.12zm-11.73 -458.49c-23.11,0 -46.75,7.43 -62.45,22.09 -15.7,14.66 -24.84,41.75 -27.43,73.14l173.72 0c-0.69,-27.59 -8.46,-53.83 -23.46,-70.39 -15,-16.55 -35.02,-24.85 -60.38,-24.85z"/>
   <polygon class="fil0" points="2123,177.44 1900.43,177.44 1900.43,539.67 1643.22,539.67 1643.22,177.44 1420.64,177.44 1420.64,958.77 1643.22,958.77 1643.22,712.56 1900.43,712.56 1900.43,958.77 2123,958.77 "/>
   <polygon class="fil0" points="4130.77,177.44 3921.77,177.44 3921.77,339.39 4130.77,339.39 "/>
   <path class="fil0" d="M2443.01 977.27c-95.38,0 -169.37,-25.35 -222.16,-76.06 -52.61,-50.72 -79.01,-123 -79.01,-216.66 0,-96.77 24.33,-170.94 73.31,-222.68 48.81,-51.76 118.51,-77.63 209.06,-77.63 86.25,0 152.83,22.43 199.92,67.45 46.92,45.02 70.38,109.88 70.38,194.4l0 87.97 -353.1 0c1.37,31.91 13.11,57.09 35.18,75.21 21.91,18.11 52.1,27.25 90.05,27.25 34.67,0 105.7,-7.75 167.52,-54.38l60.37 129.01c-97.51,56.3 -173.52,66.12 -251.52,66.12zm-11.73 -458.49c-23.11,0 -46.75,7.43 -62.45,22.09 -15.7,14.66 -24.84,41.75 -27.43,73.14l173.72 0c-0.69,-27.59 -8.46,-53.83 -23.46,-70.39 -15,-16.55 -35.02,-24.85 -60.38,-24.85z"/>
   <path class="fil0" d="M4634.04 790.73c0,61.36 -21.9,107.73 -65.69,139.1 -43.78,31.38 -106.75,47.07 -188.72,47.07 -44.52,0 -83.25,-2.25 -116,-6.9 -32.93,-4.48 -66.41,-12.75 -100.79,-24.99l0 -158.25c32.21,13.45 67.5,24.48 105.67,33.28 38.37,8.78 72.57,13.09 102.6,13.09 44.88,0 67.32,-9.82 67.32,-29.3 0,-9.99 -6.34,-19.13 -18.83,-26.88 -12.67,-7.93 -49.04,-23.44 -109.47,-46.2 -55.01,-21.55 -93.55,-46.03 -115.44,-73.43 -21.9,-27.41 -32.93,-62.24 -32.93,-104.3 0,-53.26 21.71,-94.63 64.77,-124.28 43.07,-29.64 104.05,-44.48 182.77,-44.48 39.63,0 76.74,4.13 111.64,12.41 34.75,8.26 49.92,11.36 87.37,27.04l-35.26 136.37c-27.5,-11.71 -56.64,-21.71 -87.39,-29.98 -30.76,-8.27 -55.74,-12.41 -75.29,-12.41 -33.83,0 -50.84,7.93 -50.84,23.79 0,9.65 5.98,18.09 17.73,24.99 11.94,6.89 46.14,20.85 102.6,42.06 41.98,16.55 73.28,32.57 93.92,48.44 20.81,15.87 36.01,34.49 45.6,55.85 9.77,21.21 14.65,47.23 14.65,77.93z"/>
  </g>
  <path class="fil1" d="M985.59 985.59c225.46,-225.46 225.46,-591.03 0,-816.49 -225.46,-225.46 -591.03,-225.46 -816.49,0 -225.46,225.46 -225.46,591.03 0,816.49 225.46,225.46 591.03,225.46 816.49,0zm-256.46 -239.05l-183.64 183.64c50.89,41.69 126.76,38.82 174.21,-8.63l141.51 -141.51c-45.63,9.33 -94.7,-1.83 -132.07,-33.51zm-101.31 -504.32l-183.72 183.72 293.51 293.51c0.08,0.07 0.15,0.15 0.23,0.23 0.13,0.13 0.26,0.26 0.39,0.4 0.05,0.05 0.11,0.11 0.16,0.17 50.56,49.96 132.85,49.76 183.17,-0.56 50.51,-50.51 50.51,-133.21 0,-183.72l-293.74 -293.74zm-202.24 165.94l183.64 -183.64c-50.89,-41.7 -126.76,-38.83 -174.21,8.62l-141.51 141.51c45.63,-9.33 94.71,1.84 132.08,33.51zm285.03 320.6l-293.75 -293.75c-0.09,-0.1 -0.18,-0.19 -0.27,-0.29 -0.03,-0.04 -0.07,-0.08 -0.11,-0.11 -50.41,-49.99 -132.54,-49.99 -182.95,0.01l-0.38 0.38c-50.51,50.51 -50.51,133.22 -0,183.73l293.75 293.75 183.72 -183.72zm-495.19 -312.32l201.44 -201.45c60.52,-60.52 159.49,-60.52 220.02,-0l302.82 302.83c60.52,60.52 60.52,159.48 -0,220.01l-201.86 201.87c-60.31,60.3 -158.78,60.52 -219.36,0.66 -0.22,-0.21 -0.45,-0.43 -0.67,-0.64 -0.18,-0.18 -0.36,-0.37 -0.54,-0.56l-302.28 -302.28c-60.53,-60.53 -60.51,-159.49 0.01,-220.02 0.14,-0.14 0.28,-0.27 0.42,-0.41zm752.03 551c215.44,-215.44 215.44,-564.76 0,-780.2 -215.44,-215.44 -564.76,-215.44 -780.2,0 -215.44,215.44 -215.44,564.76 0,780.2 215.44,215.44 564.76,215.44 780.2,0z"/>
 </g>
</svg>
